<?xml version="1.0" encoding="UTF-8" standalone="no"?>
<svg
   xmlns:dc="http://purl.org/dc/elements/1.1/"
   xmlns:cc="http://creativecommons.org/ns#"
   xmlns:rdf="http://www.w3.org/1999/02/22-rdf-syntax-ns#"
   xmlns:svg="http://www.w3.org/2000/svg"
   xmlns="http://www.w3.org/2000/svg"
   xmlns:sodipodi="http://sodipodi.sourceforge.net/DTD/sodipodi-0.dtd"
   xmlns:inkscape="http://www.inkscape.org/namespaces/inkscape"
   version="1.1"
   id="Layer_1"
   x="0px"
   y="0px"
   width="400"
   height="100"
   viewBox="0 0 400.00001 100"
   enable-background="new 0 0 422.968 100"
   xml:space="preserve"
   sodipodi:docname="dface_logo_type_blue.svg"
   inkscape:version="1.0.2 (e86c8708, 2021-01-15)"><metadata
   id="metadata881"><rdf:RDF><cc:Work
       rdf:about=""><dc:format>image/svg+xml</dc:format><dc:type
         rdf:resource="http://purl.org/dc/dcmitype/StillImage" /><dc:title></dc:title></cc:Work></rdf:RDF></metadata><defs
   id="defs879" /><sodipodi:namedview
   pagecolor="#ffffff"
   bordercolor="#666666"
   borderopacity="1"
   objecttolerance="10"
   gridtolerance="10"
   guidetolerance="10"
   inkscape:pageopacity="0"
   inkscape:pageshadow="2"
   inkscape:window-width="1680"
   inkscape:window-height="997"
   id="namedview877"
   showgrid="false"
   inkscape:snap-center="false"
   inkscape:snap-text-baseline="true"
   inkscape:snap-others="false"
   inkscape:object-nodes="false"
   inkscape:zoom="1.6833425"
   inkscape:cx="347.05475"
   inkscape:cy="2.4755071"
   inkscape:window-x="104"
   inkscape:window-y="79"
   inkscape:window-maximized="0"
   inkscape:current-layer="text885" />
<g
   id="g874"><g
   aria-label="DFACE"
   id="text885"
   style="font-style:normal;font-weight:normal;font-size:54.9261px;line-height:1.25;font-family:sans-serif;letter-spacing:13.7315px;word-spacing:0px;fill:#0a1eff;fill-opacity:1;stroke:none;stroke-width:1.37315"><path
     d="M 140.45907,68.764755 V 29.71573 h 12.01508 q 5.14933,0 9.19905,2.333286 4.07655,2.306468 6.3562,6.597569 2.27965,4.264283 2.27965,9.708618 v 1.796899 q 0,5.444335 -2.25283,9.681798 -2.22601,4.237463 -6.30256,6.570749 -4.07654,2.333287 -9.19905,2.360106 z m 8.04582,-32.531914 v 26.068442 h 3.88881 q 4.72021,0 7.21441,-3.084229 2.4942,-3.084229 2.54784,-8.823578 v -2.065093 q 0,-5.953903 -2.46738,-9.011313 -2.46738,-3.084229 -7.21442,-3.084229 z"
     style="font-style:normal;font-variant:normal;font-weight:bold;font-stretch:normal;font-family:Roboto;-inkscape-font-specification:'Roboto Bold';fill:#0a1eff;fill-opacity:1;stroke-width:1.37315"
     id="path905" /><path
     d="m 213.40777,52.807221 h -15.44796 v 15.957534 h -8.04582 V 29.71573 h 25.42478 v 6.517111 H 197.95981 V 46.31693 h 15.44796 z"
     style="font-style:normal;font-variant:normal;font-weight:bold;font-stretch:normal;font-family:Roboto;-inkscape-font-specification:'Roboto Bold';fill:#0a1eff;fill-opacity:1;stroke-width:1.37315"
     id="path907" /><path
     d="m 250.6867,60.71894 h -14.107 l -2.68194,8.045815 h -8.55538 l 14.5361,-39.049025 h 7.45579 l 14.61657,39.049025 h -8.55539 z m -11.93463,-6.517111 h 9.76226 l -4.90795,-14.616565 z"
     style="font-style:normal;font-variant:normal;font-weight:bold;font-stretch:normal;font-family:Roboto;-inkscape-font-specification:'Roboto Bold';fill:#0a1eff;fill-opacity:1;stroke-width:1.37315"
     id="path909" /><path
     d="m 309.50158,55.757353 q -0.45593,6.302556 -4.66657,9.923173 -4.18383,3.620617 -11.04959,3.620617 -7.50943,0 -11.82735,-5.042045 -4.2911,-5.068863 -4.2911,-13.892441 v -2.386926 q 0,-5.632071 1.98464,-9.923172 1.98463,-4.291102 5.65889,-6.57075 3.70107,-2.306467 8.5822,-2.306467 6.75848,0 10.88867,3.620617 4.13019,3.620617 4.77385,10.164547 h -8.04581 q -0.29502,-3.781533 -2.11874,-5.471154 -1.7969,-1.716441 -5.49797,-1.716441 -4.02291,0 -6.03436,2.896494 -1.98464,2.869674 -2.03828,8.930855 v 2.950132 q 0,6.329375 1.90418,9.252688 1.931,2.923313 6.06118,2.923313 3.7279,0 5.55161,-1.689621 1.85054,-1.71644 2.11874,-5.283419 z"
     style="font-style:normal;font-variant:normal;font-weight:bold;font-stretch:normal;font-family:Roboto;-inkscape-font-specification:'Roboto Bold';fill:#0a1eff;fill-opacity:1;stroke-width:1.37315"
     id="path911" /><path
     d="m 352.01029,51.841723 h -15.44797 v 10.45956 h 18.1299 v 6.463472 H 328.5165 V 29.71573 h 26.12209 v 6.517111 h -18.07627 v 9.306326 h 15.44797 z"
     style="font-style:normal;font-variant:normal;font-weight:bold;font-stretch:normal;font-family:Roboto;-inkscape-font-specification:'Roboto Bold';fill:#0a1eff;fill-opacity:1;stroke-width:1.37315"
     id="path913" /></g>
	<path
   fill="#0a1eff"
   d="M 0,0 V 100 H 99.997 V 0 Z"
   id="path858"
   sodipodi:nodetypes="ccccc" />
	
</g>
</svg>
