<?xml version="1.0" encoding="utf-8"?>
<!-- Generator: Adobe Illustrator 16.0.0, SVG Export Plug-In . SVG Version: 6.00 Build 0)  -->
<!DOCTYPE svg PUBLIC "-//W3C//DTD SVG 1.0//EN" "http://www.w3.org/TR/2001/REC-SVG-20010904/DTD/svg10.dtd">
<svg version="1.0" id="Layer_1" xmlns="http://www.w3.org/2000/svg" xmlns:xlink="http://www.w3.org/1999/xlink" x="0px" y="0px"
	 width="140px" height="33px" viewBox="244.5 122.667 140 33" enable-background="new 244.5 122.667 140 33" xml:space="preserve">
<g>
	<g>
		<path fill="#FFFFFF" d="M244.5,122.617v33.1h33.099v-33.1H244.5z M261.05,144.464l-6.117-10.594h12.232L261.05,144.464z"/>
	</g>
	<g>
		<path fill="#FFFFFF" d="M296.021,142.466l2.969-9.848h3.006l-4.564,13.099h-2.814l-4.543-13.099h2.996L296.021,142.466z"/>
		<path fill="#FFFFFF" d="M315.528,140.362h-5.184v5.354h-2.695v-13.099h8.526v2.185h-5.831v3.383h5.184V140.362z"/>
		<path fill="#FFFFFF" d="M327.011,140.92h-2.148v4.797h-2.699v-13.099h4.864c1.549,0,2.743,0.345,3.579,1.032
			c0.844,0.691,1.26,1.667,1.26,2.927c0,0.892-0.188,1.637-0.577,2.234c-0.386,0.596-0.972,1.072-1.761,1.425l2.837,5.354v0.127
			h-2.897L327.011,140.92z M324.862,138.735h2.178c0.675,0,1.201-0.173,1.572-0.519c0.373-0.346,0.558-0.82,0.558-1.425
			c0-0.618-0.174-1.104-0.526-1.457c-0.349-0.357-0.889-0.532-1.616-0.532h-2.165V138.735z"/>
		<path fill="#FFFFFF" d="M345.736,143.017h-4.732l-0.899,2.7h-2.868l4.877-13.099h2.5l4.901,13.099h-2.868L345.736,143.017z
			 M341.734,140.829h3.274l-1.647-4.901L341.734,140.829z"/>
		<path fill="#FFFFFF" d="M358.687,132.618l3.364,9.501l3.346-9.501h3.545v13.099h-2.71v-3.582l0.27-6.182l-3.533,9.764h-1.853
			l-3.525-9.752l0.27,6.17v3.582h-2.699v-13.099H358.687z"/>
		<path fill="#FFFFFF" d="M383.601,140.038h-5.182v3.511h6.081v2.168h-8.78v-13.099h8.763v2.185h-6.063v3.123h5.182V140.038z"/>
	</g>
</g>
</svg>
